<?xml version="1.0" encoding="utf-8"?>
<!-- Generator: Adobe Illustrator 27.3.1, SVG Export Plug-In . SVG Version: 6.00 Build 0)  -->
<svg version="1.1" id="Layer_1" xmlns="http://www.w3.org/2000/svg" xmlns:xlink="http://www.w3.org/1999/xlink" x="0px" y="0px"
	 viewBox="0 0 200 200" style="enable-background:new 0 0 200 200;" xml:space="preserve">
<style type="text/css">
	.st0{fill:#FFFFFF;}
	.st1{opacity:0.6;}
	.st2{fill:none;}
	
		.st3{clip-path:url(#SVGID_00000109722535624560633980000016129770614552078520_);stroke:#231F20;stroke-linecap:round;stroke-miterlimit:10;}
</style>
<circle class="st0" cx="100" cy="100" r="100"/>
<g id="zKSgZR.tif_1_" class="st1">
</g>
<path d="M-69.2-43.8c-0.1,0-0.2,0-0.3,0s-0.2,0-0.7,0s-0.7,0-0.9,0c-0.1,0-0.3,0-0.4,0c-0.4,0-0.7,0-1.1-0.1
	c-0.3-0.1-0.8-0.4-1.1-0.8c-1.5-1.9-3.8-1.6-5.2-1.7c-0.4,0-0.8-0.1-1.2-0.2h-0.1h-0.1c-1.1-0.3-2.3-0.7-4.3-0.8
	c-2.4-0.1-3.9,0.4-4.3,0.6l-0.1,0.1l0,0c-0.1,0-0.1,0-0.1,0c1.7-5.5-2.7-7-4.3-6.7c-0.1,0-1.1,1-1.8,0.9c-2.7-0.1-3.4,0.2-3.4,0.2
	c0.7,0.7,3.2,1,3.2,1s0.8,0.6,1.8,1.2c1,0.7,1.1,0.9,1.1,1.9c0.4-0.1,1.2,0,2.1,0.1c0,0,1.2,0.4,1.2,0.7c0,0.4-0.1,0.7-0.5,0.9
	c-0.3,0.2-2.6-1-3-1.2c-0.2,0.3-0.5,0.7-0.8,1c0.3,0.1,0.4,0.3,0.4,0.3c0.7,0.3,2.3,0.9,2.8,0.8c0,0-1.5,0.4-0.9,1.4
	c0,0-2.6,0-3.3-0.7c0,0,0-0.2,0.1-0.4h0.1c-0.1,0-1,0.2-1.2,0.5c0,0.1-0.1,0.2,0,0.3c0.1,0.2,0.7,0.4,1.5,0.7c0.8,0.2,1.5,0.3,2,0.4
	c1,0.1,2.7,0.2,2.7,0.3l0,0c0,0,0.1,0,0.1-0.1s0-0.1-0.1-0.1c0,0-1.8-0.1-2.7-0.3c-0.5-0.1-1.3-0.2-2-0.4c-1.1-0.3-1.4-0.5-1.4-0.6
	c-0.1-0.1,0-0.1,0-0.1c0.1-0.2,0.7-0.4,1-0.4c0,0,0,0.1,0,0.1c0.3,0.4,1,0.6,5.4,0.9l0,0c0.1,0,0.1,0,0.1,0h0.1c0.1,0,0.1,0,0.1,0
	h0.1c0,0,0,0,0.1,0l0,0c1,0.1,2.2,0.2,3.5,0.3c1.7,0.1,3.2,0.2,4.5,0.2l0,0l0,0c0,0,0,0,0.1,0c0.1,0,0.1,0,0.2,0l0,0l0,0
	c4.1,0.1,6.8-0.1,7.7-0.2c0.4,0.1,0.7,0.1,1.1,0.1c0.2,0,0.3,0,0.4,0c0.2,0,0.4-0.1,0.8,0c0.5,0,0.6,0,0.7,0S-69.3-43.7-69.2-43.8
	C-69.1-43.7-69.1-43.7-69.2-43.8C-69.1-43.8-69.1-43.9-69.2-43.8z M-93.5-51.9c-0.2,0-0.3-0.1-0.3-0.3s0.1-0.3,0.3-0.3
	s0.3,0.1,0.3,0.3C-93.2-52.1-93.3-51.9-93.5-51.9z"/>
<path d="M-54.4-60.6c-0.3,0-0.4,0-0.5,0.1c-0.2,0-0.3,0.1-1,0s-1,0-1.4,0c-0.2,0-0.4,0.1-0.7,0.1c-0.6,0-1.1-0.1-1.7-0.2
	c-0.5-0.2-1.2-0.6-1.7-1.3c-2.2-2.9-5.9-2.5-8.2-2.7c-0.6-0.1-1.2-0.2-1.8-0.3h-0.1c-0.1,0-0.1,0-0.2,0c-1.7-0.5-3.6-1.1-6.6-1.2
	c-3.7-0.1-6,0.6-6.7,0.9v-0.1v-0.1c-0.1,0-0.1,0-0.1,0c2.6-8.6-4.3-11-6.7-10.5c-0.1,0-1.7,1.5-2.9,1.5c-4.2-0.1-5.3,0.3-5.3,0.3
	c1,1.1,4.9,1.6,4.9,1.6s1.2,0.9,2.9,1.9c1.6,1,1.8,1.4,1.7,2.9c0.6-0.1,2,0,3.3,0.2c0,0,1.8,0.6,1.9,1.2c0,0.6-0.2,1.1-0.8,1.4
	c-0.5,0.3-4-1.6-4.7-1.9c-0.2,0.5-0.6,1-1.1,1.5c0.4,0.2,0.7,0.5,0.7,0.5c1.1,0.5,3.6,1.5,4.4,1.2c0,0-2.3,0.7-1.5,2.1
	c0,0-4.1,0-5.1-1c0,0,0-0.3,0.1-0.7h-0.2c-0.3,0-1.5,0.3-1.8,0.8c-0.1,0.1-0.1,0.3,0.1,0.5c0.2,0.3,1,0.7,2.4,1
	c1.2,0.3,2.4,0.5,3.1,0.6c1.5,0.2,4.2,0.4,4.3,0.4l0,0c0.1,0,0.1-0.1,0.1-0.1c0-0.1,0-0.1-0.1-0.1c0,0-2.8-0.2-4.3-0.4
	c-0.7-0.1-2-0.3-3.1-0.6c-1.8-0.4-2.2-0.8-2.3-0.9s-0.1-0.2,0-0.3c0.1-0.3,1.1-0.6,1.5-0.6c-0.1,0.4-0.1,0.5-0.1,0.5
	c0.5,0.7,1.5,0.9,8.3,1.5l0,0c0.1,0,0.1,0,0.2,0h0.1c0.1,0,0.1,0,0.2,0h0.1h0.1l0,0c1.5,0.1,3.4,0.3,5.5,0.4
	c2.6,0.2,4.9,0.3,7.1,0.4l0,0c0,0,0,0,0.1,0h0.1c0.1,0,0.2,0,0.3,0l0,0l0,0c6.4,0.2,10.6-0.2,11.9-0.3c0.6,0.1,1.1,0.2,1.7,0.2
	c0.3,0,0.5,0,0.7-0.1c0.3,0,0.6-0.1,1.3,0s0.9,0,1.1,0c0.1,0,0.2,0,0.4,0c0.1,0,0.1-0.1,0.1-0.1C-54.2-60.6-54.3-60.6-54.4-60.6z
	 M-92.2-73.2c-0.3,0-0.5-0.2-0.5-0.5s0.2-0.5,0.5-0.5c0.3,0,0.5,0.2,0.5,0.5C-91.7-73.4-91.9-73.2-92.2-73.2z"/>
<line class="st2" x1="-80.4" y1="-73.5" x2="-80.4" y2="-73.5"/>
<g id="zKSgZR.tif_2_" class="st1">
</g>
<g>
	<defs>
		<path id="SVGID_1_" d="M411.1,162.9c-2,0-3.2,0.4-4.4,0.4c-1.6,0.4-2.8,0.4-8.7,0c-6-0.4-8.7,0-11.5,0.4c-1.6,0.4-3.6,0.4-6,0.4
			c-5.2,0-9.5-0.4-15.1-2c-4-2-10.3-5.6-14.7-11.1c-19.5-25-50.5-21.5-70.4-23.5c-5.2-0.4-10.3-1.6-15.9-3.2c-0.4,0-0.8,0-0.8-0.4
			c-0.4,0-1.2-0.4-1.6-0.4c-14.3-4-30.6-9.5-57.2-10.3c-32.2-1.2-51.7,5.6-57.2,7.6l-0.8,0.8v-0.4c-0.8,0.4-0.8,0.4-0.8,0.4
			c22.3-74.4-36.5-94.3-57.2-89.9c-1.2,0.4-14.7,13.1-24.6,12.7C28,42.8,18,46.8,18,46.8c8.7,9.1,42.5,13.5,42.5,13.5
			s10.7,7.6,24.6,16.3s15.1,11.9,14.7,25.4c5.6-0.8,16.7-0.4,28.6,2c0,0,15.9,4.8,16.3,9.9c0.4,5.2-2,9.1-6.4,11.9
			c-4,2.4-34.6-13.5-40.1-16.7c-2.4,4.4-6.4,9.1-10.3,13.1c3.6,1.6,6,4,6,4c9.9,4.4,31,12.7,37.4,10.7c0,0-19.9,5.6-12.7,18.3
			c0,0-35,0-44.1-8.7c0,0,0-2.8,1.2-6h-2c-2,0-13.1,2.4-15.5,6.8c-0.4,1.2-0.8,2.4,0.4,4.4c2,2.8,8.7,6,20.7,8.7
			c10.3,2.4,20.7,4.4,26.6,4.8c13.1,1.6,36.6,3.2,36.6,3.6l0,0c0.4,0,1.2-0.4,1.2-1.2s-0.4-1.2-1.2-1.2c-0.4,0-23.8-2-36.6-3.6
			c-6.4-0.8-17.1-2.4-26.2-4.8c-14.3-3.6-18.3-6.4-19.1-7.9c-0.8-1.2-0.4-1.6-0.4-2c1.6-3.2,9.9-5.2,13.1-5.6
			c-0.8,3.2-1.2,4.4-1.2,4.4c4,6,13.1,7.9,71.9,12.7c0,0,0,0,0.4,0c0.8,0,1.2,0,2,0c0.4,0,0.8,0,0.8,0c0.8,0,1.2,0,2,0
			c0.4,0,0.8,0,0.8,0c0.4,0,0.4,0,0.8,0l0,0c13.5,1.2,29,2.4,47.3,3.6c22.3,1.6,42.5,2.8,60.8,3.2l0,0h0.4c0.4,0,0.4,0,0.8,0
			c0.8,0,2,0,2.8,0h0.4l0,0c54.8,1.2,91-1.6,102.9-2.8c5.2,1.2,9.5,1.6,14.7,1.6c2.4,0,4.4-0.4,6-0.4c2.8-0.4,5.6-0.8,11.1-0.4
			c6.4,0.4,7.6,0,9.5,0c0.8,0,2-0.4,4-0.4c0.8,0,1.2-0.4,1.2-1.2C412.3,163.3,411.9,162.5,411.1,162.9z M85.2,54c-2.4,0-4-1.6-4-4
			s1.6-4,4-4s4,1.6,4,4S87.6,54,85.2,54z"/>
	</defs>
	<clipPath id="SVGID_00000045599396664128326540000018123762350577709233_">
		<use xlink:href="#SVGID_1_"  style="overflow:visible;"/>
	</clipPath>
	
		<circle style="clip-path:url(#SVGID_00000045599396664128326540000018123762350577709233_);stroke:#231F20;stroke-linecap:round;stroke-miterlimit:10;" cx="100" cy="100" r="100"/>
</g>
</svg>
