<?xml version="1.0" encoding="utf-8"?>
<!-- Generator: Adobe Illustrator 25.2.1, SVG Export Plug-In . SVG Version: 6.00 Build 0)  -->
<svg version="1.1" id="Layer_1" xmlns="http://www.w3.org/2000/svg" xmlns:xlink="http://www.w3.org/1999/xlink" x="0px" y="0px"
	 viewBox="0 0 16 16" style="enable-background:new 0 0 16 16;" xml:space="preserve">
<path d="M-63.1,24.1c-0.5,0-0.8,0.1-1.1,0.1c-0.4,0.1-0.7,0.1-2.2,0s-2.2,0-2.9,0.1c-0.4,0.1-0.9,0.1-1.5,0.1
	c-1.3,0-2.4-0.1-3.8-0.5c-1-0.5-2.6-1.4-3.7-2.8c-4.9-6.3-12.7-5.4-17.7-5.9c-1.3-0.1-2.6-0.4-4-0.8c-0.1,0-0.2,0-0.2-0.1
	c-0.1,0-0.3-0.1-0.4-0.1c-3.6-1-7.7-2.4-14.4-2.6c-8.1-0.3-13,1.4-14.4,1.9l-0.2,0.2v-0.1c-0.2,0.1-0.2,0.1-0.2,0.1
	C-124.2-5-139-10-144.2-8.9c-0.3,0.1-3.7,3.3-6.2,3.2c-9.1-0.4-11.6,0.6-11.6,0.6c2.2,2.3,10.7,3.4,10.7,3.4s2.7,1.9,6.2,4.1
	s3.8,3,3.7,6.4c1.4-0.2,4.2-0.1,7.2,0.5c0,0,4,1.2,4.1,2.5s-0.5,2.3-1.6,3c-1,0.6-8.7-3.4-10.1-4.2c-0.6,1.1-1.6,2.3-2.6,3.3
	c0.9,0.4,1.5,1,1.5,1c2.5,1.1,7.8,3.2,9.4,2.7c0,0-5,1.4-3.2,4.6c0,0-8.8,0-11.1-2.2c0,0,0-0.7,0.3-1.5h-0.5c-0.5,0-3.3,0.6-3.9,1.7
	c-0.1,0.3-0.2,0.6,0.1,1.1c0.5,0.7,2.2,1.5,5.2,2.2c2.6,0.6,5.2,1.1,6.7,1.2c3.3,0.4,9.2,0.8,9.2,0.9l0,0c0.1,0,0.3-0.1,0.3-0.3
	c0-0.2-0.1-0.3-0.3-0.3c-0.1,0-6-0.5-9.2-0.9c-1.6-0.2-4.3-0.6-6.6-1.2c-3.6-0.9-4.6-1.6-4.8-2c-0.2-0.3-0.1-0.4-0.1-0.5
	c0.4-0.8,2.5-1.3,3.3-1.4c-0.2,0.8-0.3,1.1-0.3,1.1c1,1.5,3.3,2,18.1,3.2c0,0,0,0,0.1,0c0.2,0,0.3,0,0.5,0c0.1,0,0.2,0,0.2,0
	c0.2,0,0.3,0,0.5,0c0.1,0,0.2,0,0.2,0c0.1,0,0.1,0,0.2,0l0,0c3.4,0.3,7.3,0.6,11.9,0.9c5.6,0.4,10.7,0.7,15.3,0.8l0,0h0.1
	c0.1,0,0.1,0,0.2,0c0.2,0,0.5,0,0.7,0h0.1l0,0c13.8,0.3,22.9-0.4,25.9-0.7c1.3,0.3,2.4,0.4,3.7,0.4c0.6,0,1.1-0.1,1.5-0.1
	c0.7-0.1,1.4-0.2,2.8-0.1c1.6,0.1,1.9,0,2.4,0c0.2,0,0.5-0.1,1-0.1c0.2,0,0.3-0.1,0.3-0.3C-62.8,24.2-62.9,24-63.1,24.1z
	 M-145.1-3.3c-0.6,0-1-0.4-1-1s0.4-1,1-1s1,0.4,1,1S-144.5-3.3-145.1-3.3z"/>
<path d="M45.6,15.3c-0.3,0-0.4,0-0.5,0.1c-0.2,0-0.3,0.1-1,0s-1,0-1.4,0c-0.2,0-0.4,0.1-0.7,0.1c-0.6,0-1.1-0.1-1.7-0.2
	c-0.5-0.2-1.2-0.6-1.7-1.3c-2.2-2.9-5.9-2.5-8.2-2.7c-0.6-0.1-1.2-0.2-1.8-0.3h-0.1c-0.1,0-0.1,0-0.2,0c-1.7-0.5-3.6-1.1-6.6-1.2
	c-3.7-0.1-6,0.6-6.7,0.9l0-0.1v-0.1c-0.1,0-0.1,0-0.1,0c2.6-8.6-4.3-11-6.7-10.5C8.1,0,6.5,1.5,5.3,1.5C1.1,1.4,0,1.8,0,1.8
	c1,1.1,4.9,1.6,4.9,1.6s1.2,0.9,2.9,1.9c1.6,1,1.8,1.4,1.7,2.9c0.6-0.1,2,0,3.3,0.2c0,0,1.8,0.6,1.9,1.2c0,0.6-0.2,1.1-0.8,1.4
	c-0.5,0.3-4-1.6-4.7-1.9c-0.2,0.5-0.6,1-1.1,1.5c0.4,0.2,0.7,0.5,0.7,0.5c1.1,0.5,3.6,1.5,4.4,1.2c0,0-2.3,0.7-1.5,2.1
	c0,0-4.1,0-5.1-1c0,0,0-0.3,0.1-0.7H6.5c-0.3,0-1.5,0.3-1.8,0.8c-0.1,0.1-0.1,0.3,0.1,0.5c0.2,0.3,1,0.7,2.4,1
	c1.2,0.3,2.4,0.5,3.1,0.6c1.5,0.2,4.2,0.4,4.3,0.4l0,0c0.1,0,0.1-0.1,0.1-0.1c0-0.1,0-0.1-0.1-0.1c0,0-2.8-0.2-4.3-0.4
	c-0.7-0.1-2-0.3-3.1-0.6C5.4,14.4,5,14,4.9,13.9s-0.1-0.2,0-0.3C5,13.3,6,13,6.4,13c-0.1,0.4-0.1,0.5-0.1,0.5
	c0.5,0.7,1.5,0.9,8.3,1.5l0,0c0.1,0,0.1,0,0.2,0h0.1c0.1,0,0.1,0,0.2,0h0.1h0.1l0,0c1.5,0.1,3.4,0.3,5.5,0.4
	c2.6,0.2,4.9,0.3,7.1,0.4l0,0c0,0,0,0,0.1,0h0.1c0.1,0,0.2,0,0.3,0l0,0l0,0c6.4,0.2,10.6-0.2,11.9-0.3c0.6,0.1,1.1,0.2,1.7,0.2
	c0.3,0,0.5,0,0.7-0.1c0.3,0,0.6-0.1,1.3,0s0.9,0,1.1,0c0.1,0,0.2,0,0.4,0c0.1,0,0.1-0.1,0.1-0.1C45.8,15.3,45.7,15.3,45.6,15.3z
	 M7.8,2.7c-0.3,0-0.5-0.2-0.5-0.5s0.2-0.5,0.5-0.5s0.5,0.2,0.5,0.5S8.1,2.7,7.8,2.7z"/>
</svg>
