<svg id="Layer_1" data-name="Layer 1" xmlns="http://www.w3.org/2000/svg" viewBox="0 0 521.87 111.94"><defs><style>.cls-1{fill:#285187;}</style></defs><path class="cls-1" d="M214.61,13c.72,0,2.08.07,3.39.07s2.55-.07,3.37-.07a1.07,1.07,0,0,1,0,.75c-.42.07-.8.14-1.08.21-.56.12-.75.49-.77,1.24-.05,1.87,0,4.35,0,5.59a13.63,13.63,0,0,0,.28,2.76c.33,1.52,1.54,2.6,3.81,2.6,1.69,0,3.47-.56,3.7-3.91.12-1.75.14-5.1.05-6.74-.05-1-.26-1.38-1-1.52a11.5,11.5,0,0,0-1.31-.23,1.21,1.21,0,0,1,0-.75c.73,0,1.71.07,2.88.07,1.52,0,2.22-.07,2.71-.07a.89.89,0,0,1,0,.75,9.77,9.77,0,0,0-1,.21c-.61.16-.79.54-.84,1.69-.07,2.1-.12,4.84-.28,6.43-.35,4.23-2.79,5.61-6,5.61-4.05,0-5.53-1.94-5.81-4.3-.21-1.64-.16-6-.18-8.24,0-.61-.19-1-.73-1.17a7.84,7.84,0,0,0-1.22-.23A1.13,1.13,0,0,1,214.61,13Z" transform="translate(-7.37 -12.66)"/><path class="cls-1" d="M235.79,13c.74,0,1.89.07,3.27.07.63,0,1.24,0,1.52-.05a4.53,4.53,0,0,0,.87,1.29c2,2.55,5.85,7.39,7.27,9.06,0,0,.05,0,.07,0,0-3,.05-6.46-.09-8-.07-.78-.28-1.13-1-1.31a9.38,9.38,0,0,0-1.47-.26,1.36,1.36,0,0,1,0-.75c.59,0,1.67.07,3.14.07,1.15,0,2.24-.07,2.67-.07a1.37,1.37,0,0,1,0,.75,8.77,8.77,0,0,0-1,.21c-.66.21-.87.51-1,1.38-.14,2-.17,5.38-.19,8.84,0,1.06,0,2.41.05,3.23a16.64,16.64,0,0,0-2.11,0c-1.33-1.88-7-9.15-8.47-11.07a.07.07,0,0,0-.12,0c0,2.53,0,7.42.05,8.49s.38,1.34,1,1.48a12.28,12.28,0,0,0,1.38.23,1.09,1.09,0,0,1-.05.77c-.74,0-1.8-.07-2.94-.07s-2.32.07-3,.07a1.19,1.19,0,0,1,0-.77,6.6,6.6,0,0,0,1.31-.26c.51-.16.74-.53.81-1.33.15-1.24.21-5.5.24-9.43a1.52,1.52,0,0,0-.77-1.38,4.73,4.73,0,0,0-1.62-.4A1.43,1.43,0,0,1,235.79,13Z" transform="translate(-7.37 -12.66)"/><path class="cls-1" d="M257.64,13c.73,0,1.85.07,3.32.07,1.92,0,2.84-.07,3.35-.07a1.2,1.2,0,0,1,0,.75,10.06,10.06,0,0,0-1.22.21c-.51.19-.56.51-.58,1.19s-.05,2.58-.05,4.61c0,2.65,0,4.54.05,5.41,0,.51.07,1,.75,1.17a11.55,11.55,0,0,0,1.33.23,1,1,0,0,1-.09.77c-.82,0-1.85-.07-3.35-.07-1.85,0-2.69.07-3.53.07a.87.87,0,0,1,0-.77,8.09,8.09,0,0,0,1.1-.16c.63-.14.75-.4.82-1.2s0-3.34,0-5.64,0-3.55,0-4.58c-.05-.52-.17-.87-.61-1a8.74,8.74,0,0,0-1.31-.23A1.07,1.07,0,0,1,257.64,13Z" transform="translate(-7.37 -12.66)"/><path class="cls-1" d="M269.39,13c.7,0,2.18.07,3.32.07,1.48,0,3-.07,3.39-.07.12.07.12.66,0,.75a6.35,6.35,0,0,0-1.22.33c-.21.11-.28.35-.16.68.54,1.56,3,7.79,3.48,9,0,0,.1,0,.12,0,.61-1.33,2.69-6.65,3.18-8.33.26-.79.19-1.22-.47-1.38a10.05,10.05,0,0,0-1.4-.28,1.25,1.25,0,0,1,.09-.77c.38,0,1.24.09,2.86.09,1.43,0,2.13-.07,2.67-.07a1.2,1.2,0,0,1,0,.75,6.42,6.42,0,0,0-1.15.3c-.66.31-.89.8-1.4,2-.75,1.7-2.18,5.21-3.37,8.14-.61,1.52-1,2.62-1.22,3.32a10.82,10.82,0,0,0-1.8,0c-.3-1-.68-2-1.15-3.23-1.24-3.2-2.41-6.32-3.11-8s-1-2.06-1.73-2.27a6.8,6.8,0,0,0-1-.21A1.22,1.22,0,0,1,269.39,13Z" transform="translate(-7.37 -12.66)"/><path class="cls-1" d="M290.08,13c.82,0,2.2.07,3.39.07h4.68A25.75,25.75,0,0,0,301,13a.11.11,0,0,1,.09.1,27.72,27.72,0,0,0-.37,3.41,1.32,1.32,0,0,1-.85.07,5.38,5.38,0,0,0-.37-1.63,1.08,1.08,0,0,0-1-.71c-.56,0-3,0-3.37,0-.14,0-.25.31-.25.43,0,1.45,0,3.27,0,4.67,0,.1.07.19.14.19.72,0,2.41,0,3.18,0,.49,0,.68-.26.82-.78a8.34,8.34,0,0,0,.21-.86,1.42,1.42,0,0,1,.89,0c-.05.54-.14,1.48-.14,2.25s0,1.66,0,2.27a1.33,1.33,0,0,1-.86,0c-.17-.65-.14-.65-.24-1a.85.85,0,0,0-.79-.65c-.52-.05-2.36-.05-3.11-.05-.07,0-.14.14-.14.19,0,1.31,0,3.18,0,4.3a.81.81,0,0,0,.51.82,22.24,22.24,0,0,0,3.09.17c1.05,0,1.36-.14,1.85-.73a9.73,9.73,0,0,0,1.22-2.13,1.5,1.5,0,0,1,.79.31,21.55,21.55,0,0,1-1,3.34c-.12.24-.26.38-1.31.38-2,0-4-.1-6.5-.1-1.34,0-2.86.07-4,.07a1.44,1.44,0,0,1,0-.77,10.75,10.75,0,0,0,1.73-.26c.47-.11.68-.39.71-1.19.07-1,.07-3,.07-5.62,0-1.87,0-3.79-.07-4.49s-.19-.91-.66-1a8.35,8.35,0,0,0-1.24-.21A1,1,0,0,1,290.08,13Z" transform="translate(-7.37 -12.66)"/><path class="cls-1" d="M313,21.11a.21.21,0,0,0-.09.14c0,1.4,0,3.08,0,4,.05.72.19,1,.7,1.12a10.1,10.1,0,0,0,1.27.21c.11.07.07.73-.05.77-.49,0-1.61-.07-3.37-.07s-2.83.07-3.32.07c-.09-.09-.14-.68,0-.75.44-.07.82-.11,1.1-.18.51-.12.68-.42.72-1.2s.07-3.83.07-5.24c0-2.29,0-4,0-5,0-.63-.21-.93-.7-1a11.22,11.22,0,0,0-1.2-.21c-.11-.14-.07-.7.05-.75.56,0,2.25.07,3.09.07,1.75,0,3-.05,4.26-.05,2.83,0,4.35,1.5,4.35,3.58a3.87,3.87,0,0,1-2.72,3.61s0,.14,0,.18a34.09,34.09,0,0,0,3.74,5.1,3,3,0,0,0,2.34,1.1,1.61,1.61,0,0,1-.16.78,11.46,11.46,0,0,1-4.4-.45,3.26,3.26,0,0,1-1.14-1,48.67,48.67,0,0,1-2.93-4.44.76.76,0,0,0-.65-.42Zm.12-7a.58.58,0,0,0-.17.35c0,.61,0,2.81,0,5.48a.16.16,0,0,0,.14.16,7.23,7.23,0,0,0,2.69-.23,2.48,2.48,0,0,0,1.21-2.5c0-2-1.1-3.37-3.13-3.37A1.93,1.93,0,0,0,313.13,14.06Z" transform="translate(-7.37 -12.66)"/><path class="cls-1" d="M331.24,26.14a3.87,3.87,0,0,0,2.2.63,2,2,0,0,0,2.15-2c0-1.24-.63-1.94-2.78-3.25s-3.61-2.34-3.61-4.68c0-2.67,2.2-4.14,4.85-4.14a28.82,28.82,0,0,1,3.81.4,21,21,0,0,0-.4,3.39.94.94,0,0,1-.77,0c-.21-1.4-.47-2.08-1-2.48a3,3,0,0,0-1.82-.51,2.07,2.07,0,0,0-2.16,2.13,2.74,2.74,0,0,0,1.5,2.38c1,.64,1.78,1,2.71,1.62,1.55,1,2.42,2,2.42,3.67,0,2.41-2,4.42-5.48,4.42A8.37,8.37,0,0,1,329.3,27a16.72,16.72,0,0,1-.73-3.67,1.05,1.05,0,0,1,.77-.23A5.71,5.71,0,0,0,331.24,26.14Z" transform="translate(-7.37 -12.66)"/><path class="cls-1" d="M344.63,13c.72,0,1.84.07,3.32.07,1.92,0,2.83-.07,3.34-.07a1.13,1.13,0,0,1,0,.75,9.52,9.52,0,0,0-1.21.21c-.52.19-.56.51-.59,1.19s-.05,2.58-.05,4.61c0,2.65,0,4.54.05,5.41,0,.51.07,1,.75,1.17a11.55,11.55,0,0,0,1.33.23.93.93,0,0,1-.09.77c-.82,0-1.85-.07-3.35-.07-1.84,0-2.69.07-3.53.07a.87.87,0,0,1,0-.77,8.09,8.09,0,0,0,1.1-.16c.63-.14.75-.4.82-1.2s.05-3.34.05-5.64,0-3.55-.05-4.58c0-.52-.16-.87-.61-1a8.74,8.74,0,0,0-1.31-.23A1,1,0,0,1,344.63,13Z" transform="translate(-7.37 -12.66)"/><path class="cls-1" d="M367.81,27.35c-.84,0-2.13-.07-3.67-.07-2,0-3.2.07-3.93.07a.93.93,0,0,1,0-.75,13,13,0,0,0,1.57-.23c.65-.14.82-.47.86-1.52.1-2.18.07-6.74.07-10.46,0-.05-.07-.19-.11-.19-.42,0-1.88,0-2.51,0A1.23,1.23,0,0,0,359,15a13.8,13.8,0,0,0-.86,2.06c-.1.09-.77-.05-.82-.22.19-1,.4-2.9.47-3.93,0,0,.16-.16.23-.14a5.6,5.6,0,0,0,2.06.33h8.4a7.66,7.66,0,0,0,2.53-.3c.07,0,.16.11.18.16a25.35,25.35,0,0,0-.56,4,1.34,1.34,0,0,1-.84,0,8.31,8.31,0,0,0-.45-2.08.92.92,0,0,0-.88-.73c-.8,0-2.32,0-2.74,0a.22.22,0,0,0-.1.19c0,3.35,0,9.43.05,10.79,0,.58.17,1,.66,1.14a7.37,7.37,0,0,0,1.56.28A.9.9,0,0,1,367.81,27.35Z" transform="translate(-7.37 -12.66)"/><path class="cls-1" d="M376.87,13c.75,0,1.94.07,3.14.07s2.88-.05,3.25-.07a1,1,0,0,1,0,.75,6.1,6.1,0,0,0-.75.16c-.35.1-.32.35-.18.68.49,1.06,2.24,4.45,2.62,5.12a.15.15,0,0,0,.16,0,46.31,46.31,0,0,0,2.55-4.93c.12-.45.07-.7-.49-.82a9.38,9.38,0,0,0-1.17-.21,1.14,1.14,0,0,1,.07-.75c.63,0,1.66.07,2.74.07s1.85-.07,2.59-.07c.1.05.1.66,0,.75a8.21,8.21,0,0,0-1,.21c-.68.21-1,.49-1.69,1.52-.91,1.47-2.41,4.17-2.92,5.22a2,2,0,0,0-.26,1c0,1.06,0,2.06.05,3.26,0,.79.11,1.26.77,1.42.37.07.79.14,1.36.21a1.13,1.13,0,0,1-.08.75c-.72,0-2.29-.07-3.67-.07-1.8,0-2.62.07-3.51.07a1.08,1.08,0,0,1,0-.75,11.13,11.13,0,0,0,1.48-.23c.63-.14.72-.63.72-1.31.05-1.1,0-2,.05-3a3.27,3.27,0,0,0-.28-1.17c-.49-1.07-1.83-3.58-2.69-5.12s-1.15-1.66-1.83-1.83a5.86,5.86,0,0,0-1-.18A1.14,1.14,0,0,1,376.87,13Z" transform="translate(-7.37 -12.66)"/><path class="cls-1" d="M407.57,25.57a7.79,7.79,0,0,1-2-5.45,6.83,6.83,0,0,1,1.91-5,7.91,7.91,0,0,1,5.92-2.46,6.93,6.93,0,0,1,7.35,7.28,7.71,7.71,0,0,1-1.43,4.77,7.6,7.6,0,0,1-6.22,3A7.3,7.3,0,0,1,407.57,25.57Zm8.36.33c1.17-1.1,1.59-3.11,1.59-5.17,0-2.41-.68-4.91-2.27-6.2a3.8,3.8,0,0,0-2.5-.89,3.39,3.39,0,0,0-1.9.54c-1.43,1-2,3-2,5.27s.7,5,2.46,6.36a4.07,4.07,0,0,0,2.57.84A3.12,3.12,0,0,0,415.93,25.9Z" transform="translate(-7.37 -12.66)"/><path class="cls-1" d="M427.3,13c.7,0,2,.07,3.37.07H436a16.52,16.52,0,0,0,2.62-.14.17.17,0,0,1,.14.16,24,24,0,0,0-.4,3.56,1.2,1.2,0,0,1-.79.05,7.68,7.68,0,0,0-.49-1.85,1,1,0,0,0-1-.63,30.75,30.75,0,0,0-3.6,0c-.14,0-.26.25-.26.4,0,1.24-.05,3.25,0,5,0,.07.06.14.11.14.8,0,2.65,0,3.37-.05a.89.89,0,0,0,1-.67,8,8,0,0,0,.28-1.06,1.61,1.61,0,0,1,.87.05c-.05.56-.12,1.43-.12,2.36s0,1.66.05,2.37a1.59,1.59,0,0,1-.85.07,6,6,0,0,0-.28-1.1c-.16-.52-.42-.66-.79-.68-.63,0-2.9,0-3.51,0-.05,0-.09.1-.09.14,0,1.48,0,3,0,4,0,.75.19,1.05.72,1.19s.94.14,1.57.21a1.51,1.51,0,0,1-.09.77c-1.1,0-2.16-.07-3.6-.07s-2.27.07-3.47.07a1,1,0,0,1,0-.75,10.1,10.1,0,0,0,1.14-.16c.64-.14.73-.44.75-1.17s.07-3.32.07-5.22c0-2.66,0-4.12,0-5s-.19-1-.68-1.1a12.36,12.36,0,0,0-1.31-.23A1.13,1.13,0,0,1,427.3,13Z" transform="translate(-7.37 -12.66)"/><path class="cls-1" d="M453.61,13c.72,0,2.08.07,3.39.07s2.55-.07,3.37-.07a1.07,1.07,0,0,1,0,.75c-.42.07-.8.14-1.08.21-.56.12-.75.49-.77,1.24,0,1.87,0,4.35,0,5.59a13.63,13.63,0,0,0,.28,2.76c.33,1.52,1.54,2.6,3.81,2.6,1.69,0,3.47-.56,3.7-3.91.12-1.75.14-5.1.05-6.74-.05-1-.26-1.38-1-1.52a11.5,11.5,0,0,0-1.31-.23,1.21,1.21,0,0,1,0-.75c.73,0,1.71.07,2.88.07,1.52,0,2.22-.07,2.71-.07a.89.89,0,0,1,0,.75,9.77,9.77,0,0,0-1,.21c-.61.16-.8.54-.84,1.69-.07,2.1-.12,4.84-.28,6.43-.35,4.23-2.79,5.61-6,5.61-4,0-5.52-1.94-5.8-4.3-.21-1.64-.16-6-.19-8.24,0-.61-.18-1-.72-1.17a7.84,7.84,0,0,0-1.22-.23A1.13,1.13,0,0,1,453.61,13Z" transform="translate(-7.37 -12.66)"/><path class="cls-1" d="M485.9,27.35c-.84,0-2.13-.07-3.68-.07-2,0-3.2.07-3.93.07a1,1,0,0,1,0-.75,12.71,12.71,0,0,0,1.57-.23c.66-.14.82-.47.87-1.52.09-2.18.07-6.74.07-10.46,0-.05-.07-.19-.12-.19-.42,0-1.87,0-2.5,0a1.22,1.22,0,0,0-1.1.78,13.72,13.72,0,0,0-.87,2.06c-.09.09-.77-.05-.82-.22.19-1,.4-2.9.47-3.93,0,0,.16-.16.23-.14a5.66,5.66,0,0,0,2.06.33h8.4a7.63,7.63,0,0,0,2.53-.3c.07,0,.16.11.19.16a23.25,23.25,0,0,0-.56,4,1.38,1.38,0,0,1-.85,0,8.35,8.35,0,0,0-.44-2.08.94.94,0,0,0-.89-.73c-.8,0-2.32,0-2.74,0a.25.25,0,0,0-.09.19c0,3.35,0,9.43.05,10.79,0,.58.16,1,.65,1.14a7.5,7.5,0,0,0,1.57.28A1,1,0,0,1,485.9,27.35Z" transform="translate(-7.37 -12.66)"/><path class="cls-1" d="M494.91,24.62c1.26-3,3.25-8.4,3.81-10a7.93,7.93,0,0,0,.45-1.55,10.26,10.26,0,0,0,1.05.05,8.41,8.41,0,0,0,1-.05c.1.38.26.92.4,1.31.7,2,2.79,8,3.6,10,.73,1.82.87,2,2.6,2.22a1.46,1.46,0,0,1-.07.77c-.61,0-1.68-.07-3.23-.07s-2.66,0-3.41.07a1.35,1.35,0,0,1,0-.77,5.22,5.22,0,0,0,1.19-.28.41.41,0,0,0,.23-.51c-.21-.85-.84-2.58-1.19-3.47,0,0-.14-.16-.21-.16-.37,0-1.17,0-1.94,0-1.1,0-1.57,0-1.87,0-.1,0-.21.12-.26.21a20,20,0,0,0-1,3.18c0,.36,0,.66.68.8a7.93,7.93,0,0,0,1.15.21,1.46,1.46,0,0,1-.07.77c-.61,0-1.62-.07-3-.07-1,0-1.9.07-2.6.07a1.44,1.44,0,0,1,0-.77C494,26.35,494.25,26.16,494.91,24.62Zm4.33-8.47c-.45,1.26-1.17,3.43-1.55,4.56,0,.09,0,.14.05.16.26,0,.8,0,1.52,0s1.33,0,1.57,0c0,0,.07-.09.07-.14-.31-1-1.12-3.41-1.57-4.58C499.31,16.15,499.26,16.12,499.24,16.15Z" transform="translate(-7.37 -12.66)"/><path class="cls-1" d="M512.88,13c.56,0,1.62.07,3.3.07s2.64-.07,3.28-.07a1.12,1.12,0,0,1,0,.75,8.34,8.34,0,0,0-1.1.21c-.47.16-.58.42-.61,1.15,0,1,0,2.38,0,4a.25.25,0,0,0,.12.18,27.78,27.78,0,0,0,3.34.05c1.83,0,2.65,0,2.93,0,0,0,.14-.1.14-.17,0-1.17,0-3.23-.05-4.37a.76.76,0,0,0-.49-.77,5,5,0,0,0-1.29-.26.89.89,0,0,1,0-.75c.85,0,1.73.07,3.35.07s2.62-.07,3.18-.07a.93.93,0,0,1,0,.75,6.09,6.09,0,0,0-1.15.23c-.44.17-.58.4-.6,1.15,0,1.31,0,2.43,0,5.29,0,1.71,0,3.79,0,4.75,0,.63.14,1,.56,1.12a6.39,6.39,0,0,0,1.47.28,1.12,1.12,0,0,1-.09.77c-.63,0-1.85-.07-3.37-.07s-2.81.07-3.35.07a1,1,0,0,1,0-.77,6.18,6.18,0,0,0,1.19-.21c.42-.12.61-.4.64-1.12,0-1,0-2.9,0-4.42,0-.07-.05-.17-.14-.17-.45,0-1.9,0-3,0-2.41,0-3.18,0-3.32.07a.46.46,0,0,0-.07.14c0,1.4,0,3.34,0,4.21s.12,1.1.68,1.26a8.37,8.37,0,0,0,1.34.26,1.05,1.05,0,0,1-.1.77c-.44,0-1.54-.07-3.48-.07-1.66,0-2.83.07-3.33.07a1.26,1.26,0,0,1,0-.77c.54-.07.8-.12,1.13-.19.63-.16.77-.53.82-1.56,0-.5,0-2.6,0-4.66,0-2.27,0-4.47,0-5.08s-.17-1-.64-1.1a8.06,8.06,0,0,0-1.28-.23A1.13,1.13,0,0,1,512.88,13Z" transform="translate(-7.37 -12.66)"/><path class="cls-1" d="M104.78,46.82V39.66H67.59v1.41a3.73,3.73,0,0,1-3.73,3.74H48.29a3.73,3.73,0,0,1-3.73-3.74V39.66H7.37v7.16l9.34,1.57v67.48l-9.34,1.57v7.16H44.56v-1.07a3.74,3.74,0,0,1,3.73-3.74H63.86a3.74,3.74,0,0,1,3.73,3.74v1.07h37.19v-7.16l-9.34-1.57V48.39ZM76.6,73.34a3,3,0,1,1-3-3A3,3,0,0,1,76.6,73.34ZM71.15,46a2.1,2.1,0,1,1-2.08,2.11A2.1,2.1,0,0,1,71.15,46Zm.9,7.72a3,3,0,1,1-3,3A3,3,0,0,1,72.05,53.76ZM54.11,57.51a2.62,2.62,0,1,1-2.6,2.63A2.61,2.61,0,0,1,54.11,57.51ZM40.85,81.43A4.11,4.11,0,1,1,45,85.52,4.12,4.12,0,0,1,40.85,81.43Zm2.49,9.46a3,3,0,1,1-3-3A3,3,0,0,1,43.34,90.89Zm2.29-39.2a2.83,2.83,0,1,1-2.82,2.84A2.83,2.83,0,0,1,45.63,51.69Zm-9.8-5.79a3.3,3.3,0,1,1,3.32,3.28A3.3,3.3,0,0,1,35.83,45.9Zm1.28,61.59a3,3,0,1,1,3,3A3,3,0,0,1,37.11,107.49Zm4.78,10.73A2.1,2.1,0,1,1,44,116.11,2.1,2.1,0,0,1,41.89,118.22Zm4.92-15.31A3.87,3.87,0,1,1,50.66,99,3.86,3.86,0,0,1,46.81,102.91Zm9.25-34.43a5.32,5.32,0,1,1-5.28,5.35A5.32,5.32,0,0,1,56.06,68.48Zm2.87,38.27a2.62,2.62,0,1,1,2.61-2.63A2.62,2.62,0,0,1,58.93,106.75Zm-2-11a5.32,5.32,0,1,1,5.29-5.35A5.32,5.32,0,0,1,57,95.78Zm5.41-30.54a3.87,3.87,0,1,1,3.89,3.84A3.86,3.86,0,0,1,62.39,65.24Zm5.67,13.5A4.11,4.11,0,1,1,64,82.87,4.11,4.11,0,0,1,68.06,78.74Zm-.64,33.83a2.83,2.83,0,1,1,2.81-2.84A2.83,2.83,0,0,1,67.42,112.57Zm6.52,9.11a3.3,3.3,0,1,1,3.28-3.32A3.29,3.29,0,0,1,73.94,121.68Z" transform="translate(-7.37 -12.66)"/><path class="cls-1" d="M139,119.77a8.44,8.44,0,0,1-3.27-3.14,8.72,8.72,0,0,1-1.19-4.52,8.63,8.63,0,0,1,1.2-4.52,8.42,8.42,0,0,1,3.29-3.14,9.58,9.58,0,0,1,4.67-1.13,9.77,9.77,0,0,1,3.84.73,7.87,7.87,0,0,1,2.93,2.12l-2.05,1.93a6,6,0,0,0-4.57-2,6.44,6.44,0,0,0-3.15.77,5.54,5.54,0,0,0-2.18,2.14,6.55,6.55,0,0,0,0,6.2,5.67,5.67,0,0,0,2.18,2.14,6.44,6.44,0,0,0,3.15.77,6,6,0,0,0,4.57-2l2.05,2a7.85,7.85,0,0,1-2.94,2.13,9.85,9.85,0,0,1-3.85.73A9.7,9.7,0,0,1,139,119.77Z" transform="translate(-7.37 -12.66)"/><path class="cls-1" d="M173.2,116.7h-8.54l-1.69,4H159.7l7.69-17.1h3.13l7.72,17.1h-3.33Zm-1-2.49-3.22-7.48-3.2,7.48Z" transform="translate(-7.37 -12.66)"/><path class="cls-1" d="M204.59,103.56v17.1H202l-9.43-11.58v11.58H189.4v-17.1H192l9.43,11.58V103.56Z" transform="translate(-7.37 -12.66)"/><path class="cls-1" d="M221.41,119.77a8.47,8.47,0,0,1-3.28-3.14,9.18,9.18,0,0,1,0-9,8.4,8.4,0,0,1,3.28-3.14,9.59,9.59,0,0,1,4.68-1.13,9.69,9.69,0,0,1,3.83.73,7.82,7.82,0,0,1,2.94,2.12l-2.06,1.93a6,6,0,0,0-4.56-2,6.39,6.39,0,0,0-3.15.77,5.47,5.47,0,0,0-2.18,2.14,6.55,6.55,0,0,0,0,6.2,5.61,5.61,0,0,0,2.18,2.14,6.39,6.39,0,0,0,3.15.77,5.94,5.94,0,0,0,4.56-2l2.06,2a7.8,7.8,0,0,1-2.95,2.13,10.35,10.35,0,0,1-8.52-.4Z" transform="translate(-7.37 -12.66)"/><path class="cls-1" d="M259,118v2.66H246.21v-17.1h12.48v2.66h-9.3v4.45h8.25v2.61h-8.25V118Z" transform="translate(-7.37 -12.66)"/><path class="cls-1" d="M284,120.66l-3.49-5a5.85,5.85,0,0,1-.66,0H276v5h-3.17v-17.1h7a9.44,9.44,0,0,1,3.87.73,5.67,5.67,0,0,1,2.53,2.1,5.88,5.88,0,0,1,.88,3.25,5.81,5.81,0,0,1-.94,3.32,5.64,5.64,0,0,1-2.7,2.08l3.93,5.62Zm-1.15-13.53a4.83,4.83,0,0,0-3.15-.88H276v6.81h3.71a4.83,4.83,0,0,0,3.15-.89,3.11,3.11,0,0,0,1.08-2.53A3,3,0,0,0,282.87,107.13Z" transform="translate(-7.37 -12.66)"/><path class="cls-1" d="M324.28,103.56h3.17v17.1h-3.17Z" transform="translate(-7.37 -12.66)"/><path class="cls-1" d="M357.19,103.56v17.1h-2.62l-9.42-11.58v11.58H342v-17.1h2.61L354,115.14V103.56Z" transform="translate(-7.37 -12.66)"/><path class="cls-1" d="M373,120.34a7.92,7.92,0,0,1-2.92-1.49l1.1-2.47a8.51,8.51,0,0,0,2.58,1.36,9.38,9.38,0,0,0,3.07.52,5.26,5.26,0,0,0,2.84-.61,1.83,1.83,0,0,0,.94-1.61,1.56,1.56,0,0,0-.52-1.21,3.71,3.71,0,0,0-1.33-.74c-.54-.18-1.27-.39-2.2-.61a25.57,25.57,0,0,1-3.17-.93,5.26,5.26,0,0,1-2.07-1.46,3.88,3.88,0,0,1-.87-2.67,4.62,4.62,0,0,1,.77-2.58,5.26,5.26,0,0,1,2.32-1.84,9.33,9.33,0,0,1,3.8-.68,12.33,12.33,0,0,1,3.08.39,8.4,8.4,0,0,1,2.61,1.12l-1,2.47a9.93,9.93,0,0,0-2.35-1,9,9,0,0,0-2.36-.34,4.89,4.89,0,0,0-2.8.64,2,2,0,0,0-.92,1.68,1.53,1.53,0,0,0,.53,1.2,3.76,3.76,0,0,0,1.33.73c.54.18,1.27.39,2.2.61a23.42,23.42,0,0,1,3.12.92,5.36,5.36,0,0,1,2.09,1.45,3.82,3.82,0,0,1,.87,2.64,4.54,4.54,0,0,1-.77,2.57,5.28,5.28,0,0,1-2.33,1.83,9.65,9.65,0,0,1-3.81.68A13.24,13.24,0,0,1,373,120.34Z" transform="translate(-7.37 -12.66)"/><path class="cls-1" d="M401.36,106.25H395.7v-2.69h14.5v2.69h-5.66v14.41h-3.18Z" transform="translate(-7.37 -12.66)"/><path class="cls-1" d="M422.59,103.56h3.18v17.1h-3.18Z" transform="translate(-7.37 -12.66)"/><path class="cls-1" d="M443.82,106.25h-5.67v-2.69h14.51v2.69H447v14.41h-3.18Z" transform="translate(-7.37 -12.66)"/><path class="cls-1" d="M466.3,118.91a7.75,7.75,0,0,1-2-5.7v-9.65h3.18v9.53q0,5,4.34,5t4.33-5v-9.53h3.12v9.65a7.78,7.78,0,0,1-2,5.7,8.64,8.64,0,0,1-11,0Z" transform="translate(-7.37 -12.66)"/><path class="cls-1" d="M496.62,106.25H491v-2.69h14.51v2.69h-5.67v14.41h-3.17Z" transform="translate(-7.37 -12.66)"/><path class="cls-1" d="M529.11,118v2.66H516.28v-17.1h12.48v2.66h-9.3v4.45h8.25v2.61h-8.25V118Z" transform="translate(-7.37 -12.66)"/><path class="cls-1" d="M174.39,45.64V89.12H164.33V71.3H144.58V89.12H134.51V45.64h10.07V62.79h19.75V45.64Z" transform="translate(-7.37 -12.66)"/><path class="cls-1" d="M191.16,84.71Q186,79.57,186,70V45.64H196v24q0,11.67,9.69,11.68c3.14,0,5.55-.94,7.2-2.83s2.49-4.83,2.49-8.85v-24h9.94V70q0,9.57-5.19,14.72t-14.51,5.16Q196.34,89.87,191.16,84.71Z" transform="translate(-7.37 -12.66)"/><path class="cls-1" d="M276.82,45.64V89.12h-8.27l-21.68-26.4v26.4h-9.94V45.64h8.33L266.88,72V45.64Z" transform="translate(-7.37 -12.66)"/><path class="cls-1" d="M300.48,53.84H286.56v-8.2h37.89v8.2H310.54V89.12H300.48Z" transform="translate(-7.37 -12.66)"/><path class="cls-1" d="M338.21,88.47a23.43,23.43,0,0,1-7.74-3.63l3.42-7.58a23.15,23.15,0,0,0,6.64,3.29,25,25,0,0,0,7.71,1.24q4.29,0,6.33-1.27a3.85,3.85,0,0,0,2.05-3.39,3.21,3.21,0,0,0-1.21-2.57,9,9,0,0,0-3.1-1.65q-1.9-.61-5.13-1.37A69.57,69.57,0,0,1,339,69.18a13.14,13.14,0,0,1-5.43-3.79,10.22,10.22,0,0,1-2.27-7,12.09,12.09,0,0,1,2.05-6.87,13.81,13.81,0,0,1,6.18-4.87,25.27,25.27,0,0,1,10.1-1.81,33.52,33.52,0,0,1,8.13,1,23.81,23.81,0,0,1,7,2.86l-3.1,7.64A24.26,24.26,0,0,0,349.6,53q-4.22,0-6.24,1.37a4.16,4.16,0,0,0-2,3.6,3.52,3.52,0,0,0,2.33,3.32,36.41,36.41,0,0,0,7.11,2.15,68.43,68.43,0,0,1,8.14,2.36,13.49,13.49,0,0,1,5.44,3.72,10,10,0,0,1,2.27,6.9,11.87,11.87,0,0,1-2.09,6.8,13.9,13.9,0,0,1-6.24,4.88,25.44,25.44,0,0,1-10.12,1.8A35.58,35.58,0,0,1,338.21,88.47Z" transform="translate(-7.37 -12.66)"/><path class="cls-1" d="M417.43,89.12,417.37,63l-15,20.6-15.07-20V89.12h-9.44V45.64h8.32l16.28,22.52,16-22.52h8.26l.12,43.48Z" transform="translate(-7.37 -12.66)"/><path class="cls-1" d="M467.46,79.81H447.27l-3.85,9.31H433.11l19.38-43.48h9.94l19.44,43.48H471.31Zm-3.17-7.64L457.4,55.52l-6.9,16.65Z" transform="translate(-7.37 -12.66)"/><path class="cls-1" d="M528.83,45.64V89.12h-8.27l-21.68-26.4v26.4H489V45.64h8.32L518.89,72V45.64Z" transform="translate(-7.37 -12.66)"/></svg>